<svg width="142" height="130" viewBox="0 0 142 130" fill="none" xmlns="http://www.w3.org/2000/svg">
<g filter="url(#filter0_d_979_303)">
<path d="M5.14299 95.4208C2.72096 76.6159 11.1508 39.946 14.4003 36.8999C18.8044 23.0628 101.665 12.075 104.76 12.988C105.037 13.0697 109.587 13.6771 110.158 13.7758C115.659 14.7251 133.404 23.3208 134.827 53.7493C133.149 81.2321 132.207 92.7231 125.362 115.594C122.041 126.693 93.644 125.726 65.1275 120.999C35.957 116.165 6.67392 107.307 5.14299 95.4208Z" fill="white"/>
<path d="M5.14299 95.4208C2.72096 76.6159 11.1508 39.946 14.4003 36.8999C18.8044 23.0628 101.665 12.075 104.76 12.988C105.037 13.0697 109.587 13.6771 110.158 13.7758C115.659 14.7251 133.404 23.3208 134.827 53.7493C133.149 81.2321 132.207 92.7231 125.362 115.594C122.041 126.693 93.644 125.726 65.1275 120.999C35.957 116.165 6.67392 107.307 5.14299 95.4208Z" stroke="black" stroke-width="1.71127"/>
</g>
<path fill-rule="evenodd" clip-rule="evenodd" d="M22.5273 40.6949C56.6899 47.6266 124.272 59.2887 124.775 51.2408C124.782 51.1369 124.777 51.0297 124.761 50.9191C123.554 25.1067 108.568 22.5205 103.902 21.7152C103.417 21.6315 103.043 21.567 102.808 21.4977C100.182 20.7231 24.2913 34.6914 22.5273 40.6949Z" fill="#FCEBD5"/>
<path d="M14.9785 92.4199C17.5468 112.36 115.825 117.311 116.552 112.331C116.668 111.538 116.942 110.404 117.324 108.921C101.858 111.49 59.7353 111.787 14.9785 92.4199Z" fill="#E9C391"/>
<path d="M22.5273 40.6949C19.1549 51.2898 12.9239 76.4677 14.9785 92.4199C59.7353 111.787 101.858 111.49 117.324 108.921C117.447 108.446 117.581 107.934 117.724 107.387C119.938 98.9147 124.403 81.8377 124.828 55.6246C124.853 54.0942 124.834 52.6341 124.775 51.2408C124.272 59.2887 56.6899 47.6266 22.5273 40.6949Z" fill="#FCEBD5"/>
<path d="M22.5273 40.6949C19.1549 51.2898 12.9239 76.4677 14.9785 92.4199M22.5273 40.6949C24.2913 34.6914 100.182 20.7231 102.808 21.4977C103.043 21.567 103.417 21.6315 103.902 21.7152C108.568 22.5205 123.554 25.1067 124.761 50.9191M22.5273 40.6949C56.6899 47.6266 124.272 59.2887 124.775 51.2408M14.9785 92.4199C17.5468 112.36 115.825 117.311 116.552 112.331C116.668 111.538 116.942 110.404 117.324 108.921M14.9785 92.4199C59.7353 111.787 101.858 111.49 117.324 108.921M124.761 50.9191C124.777 51.0297 124.782 51.1369 124.775 51.2408M124.761 50.9191C124.766 51.026 124.771 51.1332 124.775 51.2408M117.324 108.921C117.447 108.446 117.581 107.934 117.724 107.387C119.938 98.9147 124.403 81.8377 124.828 55.6246C124.853 54.0942 124.834 52.6341 124.775 51.2408" stroke="black" stroke-width="1.54883"/>
<path fill-rule="evenodd" clip-rule="evenodd" d="M85.7282 14.4627C76.7185 12.7092 60.8205 23.3255 61.5173 31.7292C67.1687 35.8634 82.2583 42.1708 97.4058 34.3262C100.167 26.6895 94.5761 16.1846 85.7282 14.4627Z" fill="#E54141"/>
<path d="M61.9692 33.5888C65.5581 42.1783 91.5708 44.0688 96.3861 36.4188C96.8046 35.7539 97.1431 35.0531 97.4058 34.3262C82.2583 42.1708 67.1687 35.8634 61.5173 31.7292C61.5699 32.3637 61.7172 32.9857 61.9692 33.5888Z" fill="#B50E0E"/>
<path d="M61.5173 31.7292C61.5699 32.3637 61.7172 32.9857 61.9692 33.5888C65.5581 42.1783 91.5708 44.0688 96.3861 36.4188C96.8046 35.7539 97.1431 35.0531 97.4058 34.3262M61.5173 31.7292C60.8205 23.3255 76.7185 12.7092 85.7282 14.4627C94.5761 16.1846 100.167 26.6895 97.4058 34.3262M61.5173 31.7292C67.1687 35.8634 82.2583 42.1708 97.4058 34.3262" stroke="black" stroke-width="1.54883"/>
<path d="M88.085 20.4901C88.0666 21.6201 87.9165 22.6109 88.6549 23.5654C89.7116 24.9315 90.7035 25.1836 92.3485 25.2105" stroke="black" stroke-width="2.32324" stroke-linecap="round"/>
<defs>
<filter id="filter0_d_979_303" x="3.85651" y="12.0793" width="134.925" height="116.225" filterUnits="userSpaceOnUse" color-interpolation-filters="sRGB">
<feFlood flood-opacity="0" result="BackgroundImageFix"/>
<feColorMatrix in="SourceAlpha" type="matrix" values="0 0 0 0 0 0 0 0 0 0 0 0 0 0 0 0 0 0 127 0" result="hardAlpha"/>
<feOffset dx="3.09765" dy="3.09765"/>
<feComposite in2="hardAlpha" operator="out"/>
<feColorMatrix type="matrix" values="0 0 0 0 0.270588 0 0 0 0 0.270588 0 0 0 0 0.270588 0 0 0 1 0"/>
<feBlend mode="normal" in2="BackgroundImageFix" result="effect1_dropShadow_979_303"/>
<feBlend mode="normal" in="SourceGraphic" in2="effect1_dropShadow_979_303" result="shape"/>
</filter>
</defs>
</svg>
