<svg width="173" height="158" viewBox="0 0 173 158" fill="none" xmlns="http://www.w3.org/2000/svg">
<g filter="url(#filter0_d_979_276)">
<path d="M50.4588 43.4534C20.3235 16.1192 17.6415 40.608 16.083 57.1299C-2.15819 170.297 96.0127 140.819 107.495 138.338C160.316 126.926 169.25 72.5945 143.611 29.5779C123.1 -4.83531 114.761 15.4593 110.169 30.5532C101.421 27.4435 66.7171 37.8576 50.4588 43.4534Z" fill="white"/>
<path d="M50.4588 43.4534C20.3235 16.1192 17.6415 40.608 16.083 57.1299C-2.15819 170.297 96.0127 140.819 107.495 138.338C160.316 126.926 169.25 72.5945 143.611 29.5779C123.1 -4.83531 114.761 15.4593 110.169 30.5532C101.421 27.4435 66.7171 37.8576 50.4588 43.4534Z" stroke="black" stroke-width="1.87964"/>
</g>
<path d="M57.7136 34.8198C27.0296 6.86136 13.4494 40.0595 14.2903 57.9598C0.332923 173.461 99.062 141.755 110.545 139.274C163.366 127.862 170.973 73.4816 147.71 29.135C128.598 -7.29978 106.535 8.87302 101.944 23.967C94.2086 25.6382 73.9719 29.224 57.7136 34.8198Z" fill="white" stroke="black" stroke-width="1.87964"/>
<path d="M54.8058 45.6964C27.7048 21.1144 25.2929 43.1375 23.8914 57.9959C7.48679 159.769 95.773 133.258 106.099 131.027C153.602 120.765 161.637 71.9033 138.579 33.218C120.133 2.26981 112.633 20.521 108.504 34.0951C100.637 31.2985 69.4271 40.6641 54.8058 45.6964Z" fill="#E9E9E9" stroke="black" stroke-width="1.69038"/>
<path d="M122.755 25.0964C118.384 23.0178 114.662 30.6387 113.348 34.709C123.101 39.216 130.088 36.7321 132.363 34.9268C129.417 26.4406 124.731 24.8373 122.755 25.0964Z" fill="#F3A2B1" stroke="black" stroke-width="1.69038"/>
<path d="M33.56 43.5703C28.7202 43.654 28.7782 52.135 29.4122 56.365C40.1521 56.0614 45.3046 50.7276 46.5384 48.0987C40.1243 41.8097 35.2136 42.4594 33.56 43.5703Z" fill="#F3A2B1" stroke="black" stroke-width="1.69038"/>
<path d="M90.2278 80.9021C87.3658 81.5204 83.2505 81.7838 84.1194 85.8057C85.0251 89.9976 92.0025 85.5642 93.6281 84.1993C96.6676 81.6475 95.7311 78.3691 91.6625 79.2482C89.3875 79.7396 85.512 80.2127 84.9438 82.9397C84.1898 86.5577 88.6864 84.819 90.9676 84.3262C92.5862 83.9765 92.5218 83.6085 93.4722 82.4411C93.9057 81.9086 94.0645 80.1785 93.152 79.9219C91.9665 79.5885 90.1327 80.5863 89.1578 81.1332C88.9496 81.2501 85.8269 82.6904 86.2997 82.9951C87.4637 83.7455 90.0523 83.1799 91.3322 82.9034C92.1694 82.7225 93.9907 82.2707 92.2173 81.8162" stroke="black" stroke-width="2.53557" stroke-linecap="round"/>
<path d="M67.0777 84.0218C66.9813 83.0805 68.2816 81.5232 67.0076 80.7019C65.5061 79.734 65.8551 82.5097 65.9905 83.1367C66.5342 85.6531 70.6939 83.4683 68.235 81.0838" stroke="black" stroke-width="2.53557" stroke-linecap="round"/>
<path d="M109.858 73.9146C109.761 72.9733 111.062 71.416 109.788 70.5947C108.286 69.6268 108.635 72.4025 108.771 73.0295C109.314 75.5459 113.474 73.3611 111.015 70.9766" stroke="black" stroke-width="2.53557" stroke-linecap="round"/>
<path d="M62.2581 44.2088C62.7153 46.3249 61.7207 52.5814 63.9904 54.0446C68.1923 56.7535 69.0703 49.9157 69.1503 47.4321C69.1805 46.4965 69.074 40.339 66.5351 42.194C65.7286 42.7833 64.8056 43.4145 63.9718 43.8604C63.4823 44.1222 64.7192 47.2114 64.8273 47.8205C64.924 48.3651 64.3656 53.9636 64.6205 52.3159C66.9085 53.4142 65.8311 50.8038 66.0979 49.6624C66.3512 48.5787 66.7709 46.9207 66.5368 45.837C66.4204 45.2984 66.648 42.9306 66.9404 44.0699C67.3515 45.6717 66.4302 47.1614 66.7695 48.7319C66.8119 48.9279 67.1181 52.4767 67.3977 52.0431C68.3419 50.5785 67.0109 45.9585 65.2897 45.5174" stroke="#9A9A9A" stroke-width="2.53557" stroke-linecap="round"/>
<path d="M77.7874 39.2102C78.5562 41.234 78.9252 49.263 81.3884 50.37C85.9485 52.4193 85.793 45.5271 85.5003 43.0595C85.39 42.13 84.3629 36.0578 82.1304 38.2719C81.4212 38.9753 81.1054 38.4881 80.3477 39.0538C79.6445 38.809 80.3281 44.2718 80.5263 44.8578C80.7034 45.3818 82.088 50.1347 82.7299 50.0801C84.5253 49.9276 82.7232 46.8901 82.8161 45.7216C82.9043 44.6122 83.0711 42.9101 82.6774 41.8736C82.4817 41.3585 82.3523 38.9833 82.8119 40.066C83.4582 41.5882 82.7703 43.1991 83.3409 44.701C83.4121 44.8886 84.2462 48.3515 84.4576 47.881C85.172 46.2915 83.008 43.363 81.2401 43.1845" stroke="#9A9A9A" stroke-width="2.53557" stroke-linecap="round"/>
<path d="M93.3872 35.3719C94.337 37.3174 95.2191 44.7871 97.7728 45.6654C102.5 47.2914 101.907 41.1266 101.391 38.6959C101.196 37.7802 99.8606 32.4344 97.8387 34.8425C97.1964 35.6075 96.1557 34.2934 95.4526 34.9257C95.0398 35.2969 96.3502 40.3737 96.6008 40.9392C96.8248 41.4449 97.5251 44.6335 98.1594 44.5208C99.9335 44.2056 98.9735 42.7632 98.9597 41.5911C98.9466 40.4783 98.3905 39.509 97.9041 38.5127C97.6624 38.0175 97.8849 34.923 98.4411 35.9593C99.2231 37.4165 98.6846 39.0832 99.3895 40.527C99.4775 40.7073 100.623 44.08 100.791 43.5922C101.358 41.9443 98.9148 36.7402 97.138 36.7233" stroke="#9A9A9A" stroke-width="2.53557" stroke-linecap="round"/>
<path d="M55.1546 45.459C28.0535 20.877 25.3442 43.5244 23.9426 58.3828C7.53809 160.156 96.1217 133.021 106.448 130.79C153.951 120.527 161.985 71.6659 138.928 32.9806C120.482 2.03235 112.982 20.2835 108.853 33.8576C100.985 31.061 69.7759 40.4266 55.1546 45.459Z" stroke="black" stroke-width="1.69038"/>
<path d="M91.2651 84.3434C92.1256 88.3265 90.145 92.1497 89.8336 96.0991" stroke="black" stroke-width="2.53557" stroke-linecap="round"/>
<path d="M91.2761 90.8819C92.5035 91.5747 93.4004 92.6356 94.6293 93.4278" stroke="black" stroke-width="2.53557" stroke-linecap="round"/>
<defs>
<filter id="filter0_d_979_276" x="12.8902" y="9.76575" width="149.238" height="138.531" filterUnits="userSpaceOnUse" color-interpolation-filters="sRGB">
<feFlood flood-opacity="0" result="BackgroundImageFix"/>
<feColorMatrix in="SourceAlpha" type="matrix" values="0 0 0 0 0 0 0 0 0 0 0 0 0 0 0 0 0 0 127 0" result="hardAlpha"/>
<feOffset dx="3.75927" dy="3.75927"/>
<feComposite in2="hardAlpha" operator="out"/>
<feColorMatrix type="matrix" values="0 0 0 0 0.272493 0 0 0 0 0.272493 0 0 0 0 0.272493 0 0 0 1 0"/>
<feBlend mode="normal" in2="BackgroundImageFix" result="effect1_dropShadow_979_276"/>
<feBlend mode="normal" in="SourceGraphic" in2="effect1_dropShadow_979_276" result="shape"/>
</filter>
</defs>
</svg>
